<svg aria-hidden="true" style="position: absolute; width: 0; height: 0; overflow: hidden;" version="1.1" xmlns="http://www.w3.org/2000/svg" xmlns:xlink="http://www.w3.org/1999/xlink">
<defs>
<symbol id="icon-calendar-color-icon" viewBox="0 0 33 32">
<path fill="#ef4136" style="fill: var(--color1, #ef4136)" d="M3.047 1.764h-0.001c-1.68 0.006-3.040 1.366-3.046 3.047v7.074h32.497v-7.075c-0.007-1.679-1.367-3.038-3.047-3.046h-26.404zM9.603 4.342c1.36 0 2.462 1.102 2.462 2.462s-1.102 2.462-2.462 2.462c-1.36 0-2.462-1.102-2.462-2.462v0c0-1.36 1.102-2.462 2.462-2.462v0zM22.77 4.342c1.36 0 2.462 1.102 2.462 2.462s-1.102 2.462-2.462 2.462c-1.36 0-2.462-1.102-2.462-2.462v0c0-1.36 1.102-2.462 2.462-2.462v0z"></path>
<path fill="#808080" style="fill: var(--color2, #808080)" d="M29.451 32h-26.404c-1.68-0.007-3.039-1.367-3.047-3.046v-18.376h32.497v18.37c-0.003 1.682-1.365 3.046-3.046 3.052h-0.001z"></path>
<path fill="#fff" style="fill: var(--color3, #fff)" d="M3.372 31.024h25.753c1.321-0.006 2.39-1.075 2.396-2.395v-18.050h-30.545v18.044c0.004 1.321 1.075 2.392 2.396 2.396h0z"></path>
<path fill="#c72b20" style="fill: var(--color4, #c72b20)" d="M22.77 3.869v0c-0.797 0-1.52 0.319-2.047 0.836l-0.029 0.026c-0.531 0.532-0.859 1.266-0.859 2.076 0 1.623 1.315 2.938 2.938 2.938s2.938-1.315 2.938-2.938c0-1.623-1.315-2.938-2.938-2.938-0.001 0-0.002 0-0.003 0zM22.77 4.342c1.36 0 2.462 1.102 2.462 2.462s-1.102 2.462-2.462 2.462c-1.36 0-2.462-1.102-2.462-2.462v0c0-1.36 1.102-2.462 2.462-2.462v0z"></path>
<path fill="#c72b20" style="fill: var(--color4, #c72b20)" d="M9.603 3.869h-0c-0.797 0.001-1.519 0.319-2.047 0.836l-0.029 0.026c-0.531 0.532-0.859 1.266-0.859 2.076 0 1.623 1.315 2.938 2.938 2.938s2.938-1.315 2.938-2.938c0-1.623-1.315-2.938-2.938-2.938-0.001 0-0.002 0-0.003 0zM9.603 4.342c1.36 0 2.462 1.102 2.462 2.462s-1.102 2.462-2.462 2.462c-1.36 0-2.462-1.102-2.462-2.462v0c0-1.36 1.102-2.462 2.462-2.462v0z"></path>
<path fill="#1a1a1a" style="fill: var(--color5, #1a1a1a)" d="M21.3 1.206c0-0.677 0.651-1.206 1.47-1.206s1.47 0.529 1.47 1.206v5.609c0 0.664-0.656 1.206-1.47 1.206s-1.47-0.529-1.47-1.206v-5.609z"></path>
<path fill="#1a1a1a" style="fill: var(--color5, #1a1a1a)" d="M8.132 1.206c0-0.677 0.659-1.206 1.47-1.206s1.47 0.529 1.47 1.206v5.609c0 0.664-0.656 1.206-1.47 1.206s-1.47-0.529-1.47-1.206v-5.609z"></path>
<path fill="#1a1a1a" style="fill: var(--color5, #1a1a1a)" d="M5.818 22.643h3.702c0.261 0 0.473 0.212 0.473 0.473v0 3.094c-0.002 0.261-0.213 0.472-0.473 0.473h-3.703c0 0 0 0 0 0-0.262 0-0.475-0.212-0.476-0.473v-3.094c0.002-0.262 0.214-0.473 0.476-0.473 0 0 0 0 0 0v0z"></path>
<path fill="#1a1a1a" style="fill: var(--color5, #1a1a1a)" d="M14.434 22.643h3.718c0.261 0 0.473 0.212 0.473 0.473v0 3.094c-0.002 0.261-0.213 0.472-0.473 0.473h-3.718c-0.261-0.002-0.472-0.213-0.473-0.473v-3.094c0.002-0.261 0.213-0.472 0.473-0.473h0z"></path>
<path fill="#1a1a1a" style="fill: var(--color5, #1a1a1a)" d="M22.974 22.643h3.718c0.261 0.002 0.472 0.213 0.473 0.473v3.094c-0.002 0.261-0.213 0.472-0.473 0.473h-3.718c-0.261-0.002-0.472-0.213-0.473-0.473v-3.094c0-0.261 0.212-0.473 0.473-0.473v0z"></path>
<path fill="#1a1a1a" style="fill: var(--color5, #1a1a1a)" d="M5.818 14.921h3.702c0.262 0.002 0.473 0.214 0.473 0.476 0 0 0 0 0 0v0 3.092c-0.002 0.261-0.213 0.472-0.473 0.473h-3.703c0 0 0 0 0 0-0.262 0-0.475-0.212-0.476-0.473v-3.092c0.002-0.262 0.214-0.475 0.476-0.476h0z"></path>
<path fill="#1a1a1a" style="fill: var(--color5, #1a1a1a)" d="M14.434 14.921h3.718c0.262 0.002 0.473 0.214 0.473 0.476 0 0 0 0 0 0v0 3.092c-0.002 0.261-0.213 0.472-0.473 0.473h-3.718c-0.261 0-0.473-0.212-0.473-0.473v0-3.092c0 0 0 0 0 0 0-0.262 0.212-0.475 0.473-0.476h0z"></path>
<path fill="#1a1a1a" style="fill: var(--color5, #1a1a1a)" d="M22.974 14.921h3.718c0.262 0.002 0.473 0.214 0.473 0.476 0 0 0 0 0 0v0 3.092c-0.002 0.261-0.213 0.472-0.473 0.473h-3.718c-0.261 0-0.473-0.212-0.473-0.473v0-3.092c0 0 0 0 0 0 0-0.262 0.212-0.475 0.473-0.476h0z"></path>
</symbol>
<symbol id="icon-pencil" viewBox="0 0 32 32">
<path d="M25.219 0.578v0c-0.771-0.771-2.031-0.771-2.802 0l-3.229 3.229 8.641 8.641 3.229-3.229c0.771-0.771 0.771-2.031 0-2.802l-5.839-5.839zM18.276 13.591v0 0.003c0.24 0.24 0.359 0.557 0.359 0.87s-0.12 0.628-0.359 0.87v0.003l-7.839 7.839c-0.068 0.068-0.143 0.125-0.219 0.174h-0.003c-0.078 0.049-0.159 0.089-0.242 0.117-0.432 0.151-0.935 0.052-1.279-0.292h-0.003v-0.003c-0.068-0.068-0.125-0.143-0.174-0.219v-0.003c-0.049-0.078-0.089-0.159-0.117-0.242-0.151-0.432-0.052-0.935 0.289-1.279v-0.003l7.839-7.836c0.24-0.24 0.557-0.359 0.87-0.359s0.628 0.12 0.87 0.359h0.008zM11.844 28.414c-2.339 0.724-4.674 1.445-7.013 2.169-5.495 1.701-5.471 2.833-3.971-2.458l2.362-8.333-0.008-0.008 14.339-14.341 8.641 8.641-14.341 14.341-0.008-0.010zM4.695 21.266l5.674 5.674c-1.536 0.474-3.073 0.948-4.607 1.419-3.609 1.112-3.594 1.857-2.612-1.62l1.544-5.474z"></path>
</symbol>
<symbol id="icon-delete" viewBox="0 0 28 32">
<path d="M1.269 2.359h8.685v-0.748c0-0.025 0.001-0.048 0.004-0.073 0.020-0.415 0.198-0.791 0.473-1.064l-0.002-0.002c0.287-0.287 0.687-0.466 1.126-0.47l0.006 0.001v-0.003h5.19c0.028 0 0.054 0.002 0.080 0.006 0.412 0.022 0.786 0.198 1.058 0.471 0.287 0.288 0.465 0.686 0.47 1.124l-0.001 0.005h0.004v0.752h8.574c0.036 0 0.070 0.004 0.104 0.009 0.308 0.028 0.587 0.163 0.79 0.367l0.001 0.002 0.001-0.002c0.222 0.223 0.361 0.533 0.365 0.877l-0.001 0.008h0.004v2.828c0 0.383-0.311 0.694-0.695 0.694h-26.813c-0.383-0-0.695-0.311-0.695-0.694v-2.824c0-0.028 0.001-0.055 0.005-0.082v-0.005c0.023-0.314 0.163-0.6 0.37-0.807l-0.002-0.001c0.224-0.224 0.536-0.364 0.879-0.368l0.008 0.001v-0.003h0.008zM20.258 12.786h-1.548v14.608h1.548v-14.608zM15.224 12.786h-1.549v14.608h1.549v-14.608zM10.19 12.786h-1.548v14.608h1.548v-14.608zM2.822 8.221l22.942 0.015c0.355 0.042 0.687 0.205 0.93 0.445 0.271 0.267 0.444 0.629 0.444 1.032 0 0.026-0.002 0.050-0.005 0.074l-0.001 0.018-0.004 0.040-1.925 20.66-0.002 0.011h0.002l-0.004 0.036-0.013 0.074-0.001 0.001-0.001 0.005c-0.014 0.086-0.031 0.168-0.054 0.242l-0.002 0.006-0.001 0.001-0.002 0.005-0.006 0.016-0.001 0.005c-0.031 0.092-0.069 0.182-0.113 0.263-0.263 0.49-0.75 0.83-1.355 0.83l-19.006-0.005c-0.12-0.006-0.231-0.024-0.335-0.053-0.108-0.030-0.213-0.074-0.312-0.129l-0.002-0.001-0.001 0.001c-0.465-0.254-0.775-0.751-0.826-1.308l-1.902-20.698-0.003-0.064-0.001-0.030h-0.001c0-0.404 0.173-0.767 0.445-1.034 0.254-0.249 0.604-0.416 0.978-0.449l0.032-0.001v-0.002l0.078-0.003 0.027 0.001v-0.004h-0zM25.579 9.61l-22.787-0.001c-0.042 0.006-0.084 0.028-0.114 0.058-0.016 0.016-0.027 0.034-0.027 0.047h-0.002l0.002 0.031 1.896 20.636h-0.001l0.001 0.003c0.008 0.098 0.053 0.18 0.116 0.215l-0.001 0.001 0.022 0.008 0.016 0.003h18.951c0.054 0 0.104-0.041 0.135-0.098l0.022-0.051 0.014-0.056 0.004-0.036h0.001l1.923-20.628-0.001-0.029c0-0.012-0.011-0.029-0.027-0.045-0.031-0.031-0.074-0.053-0.117-0.059l-0.027 0.001zM25.608 9.61v0zM25.751 9.743v0zM27.13 9.841v0zM10.648 3.747h-9.259v2.007h25.424v-2.007h-9.145c-0.383 0-0.694-0.31-0.694-0.694v-1.447h0.002c-0.002-0.057-0.028-0.113-0.067-0.152-0.036-0.037-0.084-0.060-0.136-0.066l-5.212-0.002c-0.055 0.002-0.11 0.027-0.15 0.067l-0.001-0.001-0.002 0.001c-0.034 0.035-0.060 0.081-0.067 0.13l0.002 0.027v1.442c-0 0.383-0.311 0.694-0.695 0.694v0z"></path>
</symbol>
<symbol id="icon-info-icon" viewBox="0 0 15 32">
<path d="M8.463 0c1.155 0 2.064 0.334 2.726 0.995 0.655 0.659 0.986 1.564 0.986 2.729 0 1.182-0.563 2.232-1.698 3.154-1.141 0.921-2.464 1.385-3.972 1.385-1.133 0-2.034-0.317-2.725-0.953-0.69-0.643-1.035-1.475-1.035-2.51 0-1.304 0.563-2.428 1.684-3.382 1.12-0.944 2.465-1.417 4.036-1.417v0zM14.919 32h-14.919v-2.51h2.803v-15.333h-2.803v-1.998h6.973c1.761 0 3.494-0.211 5.206-0.643v17.975h2.74v2.51z"></path>
</symbol>
<symbol id="icon-close" viewBox="0 0 32 32">
<path d="M0.371 2.165c-0.495-0.495-0.495-1.298 0-1.793s1.298-0.495 1.793 0l13.835 13.835 13.835-13.835c0.495-0.495 1.298-0.495 1.794 0s0.495 1.298 0 1.793l-13.836 13.835 13.835 13.835c0.495 0.495 0.495 1.298 0 1.793s-1.298 0.495-1.794 0l-13.835-13.835-13.835 13.835c-0.495 0.495-1.298 0.495-1.793 0s-0.495-1.298 0-1.793l13.835-13.835-13.835-13.835z"></path>
</symbol>
<symbol id="icon-plus" viewBox="0 0 32 32">
<path d="M14.733 1.268c0-0.171 0.034-0.334 0.096-0.484 0.065-0.156 0.159-0.296 0.275-0.412 0.229-0.229 0.546-0.371 0.896-0.371 0.171 0 0.335 0.034 0.485 0.097 0.003 0.001 0.006 0.003 0.010 0.004 0.152 0.065 0.288 0.157 0.402 0.271 0.229 0.229 0.371 0.546 0.371 0.896 0 0.008-0.001 0.016-0.002 0.023v13.443h13.442c0.008-0.001 0.016-0.002 0.023-0.002 0.171 0 0.335 0.034 0.485 0.097 0.004 0.001 0.006 0.003 0.010 0.004 0.152 0.065 0.288 0.157 0.402 0.271 0.229 0.229 0.372 0.546 0.372 0.896 0 0.17-0.035 0.334-0.097 0.484-0.065 0.156-0.159 0.296-0.275 0.412s-0.255 0.21-0.411 0.275v0c-0.15 0.062-0.314 0.096-0.485 0.096-0.008 0-0.016-0.001-0.023-0.002l-13.442 0v13.442c0.001 0.008 0.002 0.016 0.002 0.023 0 0.171-0.035 0.335-0.097 0.485-0.002 0.004-0.003 0.006-0.005 0.010-0.065 0.152-0.157 0.288-0.27 0.402-0.23 0.23-0.547 0.372-0.897 0.372-0.17 0-0.334-0.034-0.484-0.097-0.156-0.065-0.296-0.159-0.412-0.275s-0.21-0.255-0.275-0.411h-0c-0.062-0.15-0.097-0.314-0.097-0.485 0-0.008 0.001-0.016 0.002-0.023v-13.442h-13.442c-0.008 0.001-0.015 0.002-0.023 0.002-0.17 0-0.334-0.034-0.484-0.097-0.156-0.065-0.296-0.159-0.412-0.275s-0.21-0.255-0.275-0.411v0c-0.062-0.15-0.097-0.314-0.097-0.485s0.034-0.334 0.097-0.484c0.065-0.156 0.159-0.296 0.275-0.412 0.229-0.229 0.546-0.371 0.896-0.371 0.008 0 0.016 0.001 0.023 0.002h13.443v-13.443c-0.001-0.008-0.002-0.016-0.002-0.023v0z"></path>
</symbol>
</defs>
</svg>